#N canvas 0 22 1920 545 10;
#N canvas 0 22 450 300 (subpatch) 0;
#X array array1 128 float 0;
#X coords 0 260 127 -5 400 140 1;
#X restore 100 274 graph;
#X msg 126 29 close;
#X obj 241 199 + 1;
#X obj 241 170 f;
#X obj 241 141 bang;
#X obj 184 198 mod 128;
#X obj 184 89 select 255;
#X msg 275 141 0;
#X obj 169 62 comport \$1 115200;
#X text 224 28 comport number goes here;
#X msg 60 28 devices;
#N canvas 0 22 450 300 (subpatch) 0;
#X array lows 4 float 0;
#X coords 0 260 3 -5 400 140 1 0 0;
#X restore 99 443 graph;
#X msg 169 29 open 4;
#X obj 102 223 tabwrite array1;
#X obj 675 346 bng 45 250 50 0 empty empty empty 17 7 0 10 -262144
-1 -1;
#X obj 308 221 tabwrite lows;
#X obj 383 173 spigot;
#X obj 308 174 spigot;
#X obj 473 173 max;
#X floatatom 474 220 5 0 0 0 - - -;
#X obj 511 152 f;
#X msg 472 131 0;
#X obj 838 188 max;
#X floatatom 838 210 5 0 0 0 - - -;
#X obj 876 167 f;
#X msg 837 146 0;
#X obj 720 111 spigot;
#X obj 639 166 spigot;
#X obj 639 212 tabwrite mids;
#N canvas 0 22 450 300 (subpatch) 0;
#X array mids 26 float 0;
#X coords 0 260 25 -5 400 140 1 0 0;
#X restore 513 444 graph;
#X obj 714 165 spigot;
#X text 721 156;
#X obj 1251 188 max;
#X floatatom 1251 210 5 0 0 0 - - -;
#X obj 1289 167 f;
#X msg 1250 146 0;
#X obj 1052 166 spigot;
#N canvas 0 22 450 300 (subpatch) 0;
#X array highs 32 float 0;
#X coords 0 260 31 -5 400 140 1 0 0;
#X restore 926 444 graph;
#X obj 1127 165 spigot;
#X obj 1052 212 tabwrite highs;
#X text 1134 156;
#X text 399 133;
#X obj 1150 58 >= 30;
#X obj 1127 188 - 30;
#X obj 756 137 < 30;
#X obj 737 58 >= 4;
#X obj 714 188 - 4;
#X obj 413 133 < 4;
#X connect 1 0 8 0;
#X connect 2 0 3 1;
#X connect 3 0 2 0;
#X connect 3 0 5 0;
#X connect 4 0 3 0;
#X connect 5 0 13 1;
#X connect 5 0 16 0;
#X connect 5 0 26 0;
#X connect 5 0 30 0;
#X connect 5 0 38 0;
#X connect 5 0 42 0;
#X connect 5 0 44 0;
#X connect 5 0 45 0;
#X connect 5 0 47 0;
#X connect 6 0 7 0;
#X connect 6 1 4 0;
#X connect 6 1 13 0;
#X connect 6 1 17 0;
#X connect 6 1 27 0;
#X connect 6 1 36 0;
#X connect 7 0 3 1;
#X connect 8 0 6 0;
#X connect 10 0 8 0;
#X connect 12 0 8 0;
#X connect 14 0 21 0;
#X connect 14 0 25 0;
#X connect 14 0 35 0;
#X connect 16 0 15 1;
#X connect 17 0 15 0;
#X connect 17 0 18 0;
#X connect 18 0 20 0;
#X connect 18 0 19 0;
#X connect 20 0 18 1;
#X connect 21 0 18 0;
#X connect 21 0 20 0;
#X connect 22 0 24 0;
#X connect 22 0 23 0;
#X connect 24 0 22 1;
#X connect 25 0 22 0;
#X connect 25 0 24 0;
#X connect 26 0 44 0;
#X connect 27 0 28 0;
#X connect 27 0 22 0;
#X connect 30 0 46 0;
#X connect 32 0 34 0;
#X connect 32 0 33 0;
#X connect 34 0 32 1;
#X connect 35 0 32 0;
#X connect 35 0 34 0;
#X connect 36 0 32 0;
#X connect 36 0 39 0;
#X connect 38 0 43 0;
#X connect 42 0 36 1;
#X connect 42 0 38 1;
#X connect 43 0 39 1;
#X connect 44 0 30 1;
#X connect 45 0 26 1;
#X connect 45 0 27 1;
#X connect 46 0 28 1;
#X connect 47 0 16 1;
#X connect 47 0 17 1;
